<svg height="512" viewBox="0 0 64 64" width="512" xmlns="http://www.w3.org/2000/svg"><g id="Layer_30" data-name="Layer 30"><circle cx="41" cy="35" r="2"/><circle cx="29" cy="30" r="3"/><path d="m29 35a7.009 7.009 0 0 0 -7 7v3h14v-3a7.009 7.009 0 0 0 -7-7z"/><circle cx="17" cy="35" r="2"/><path d="m12 44v1h8v-3a8.994 8.994 0 0 1 .191-1.84 4.992 4.992 0 0 0 -8.191 3.84z"/><path d="m41 39a5 5 0 0 0 -3.191 1.16 8.994 8.994 0 0 1 .191 1.84v3h8v-1a5.006 5.006 0 0 0 -5-5z"/><path d="m48 31a14.971 14.971 0 0 1 -9.558-3.458l-2.251.439a1 1 0 0 1 -1.163-1.216l.57-2.352a14.873 14.873 0 0 1 -1.136-14.829 26.02 26.02 0 1 0 19.954 19.954 14.874 14.874 0 0 1 -6.416 1.462zm0 15a1 1 0 0 1 -1 1h-36a1 1 0 0 1 -1-1v-2a7 7 0 0 1 4.04-6.334 4 4 0 1 1 5.922 0 7.123 7.123 0 0 1 .9.512 9.04 9.04 0 0 1 4.758-4.513 5 5 0 1 1 6.754 0 9.04 9.04 0 0 1 4.758 4.513 7.123 7.123 0 0 1 .9-.512 4 4 0 1 1 5.922 0 7 7 0 0 1 4.046 6.334z"/><path d="m48 3a12.982 12.982 0 0 0 -10.515 20.62 1 1 0 0 1 .162.823l-.308 1.277 1.2-.234a1.04 1.04 0 0 1 .192-.018 1 1 0 0 1 .663.252 12.994 12.994 0 1 0 8.606-22.72zm6 15h-4v4a2 2 0 0 1 -4 0v-4h-4a2 2 0 0 1 0-4h4v-4a2 2 0 0 1 4 0v4h4a2 2 0 0 1 0 4z"/></g></svg>